TITLE ""
FILE "1Q_t_0110-0118.mp3" MP3
  TRACK 01 AUDIO
    TITLE "1Q_t_0110-0118_01"
    INDEX 01 00:00:00
  TRACK 02 AUDIO
    TITLE "1Q_t_0110-0118_02"
    INDEX 01 00:01:22
  TRACK 03 AUDIO
    TITLE "1Q_t_0110-0118_03"
    INDEX 01 00:01:37
  TRACK 04 AUDIO
    TITLE "1Q_t_0110-0118_04"
    INDEX 01 00:04:53
  TRACK 05 AUDIO
    TITLE "1Q_t_0110-0118_05"
    INDEX 01 00:04:69
  TRACK 06 AUDIO
    TITLE "1Q_t_0110-0118_06"
    INDEX 01 00:10:11
  TRACK 07 AUDIO
    TITLE "1Q_t_0110-0118_07"
    INDEX 01 00:10:62
  TRACK 08 AUDIO
    TITLE "1Q_t_0110-0118_08"
    INDEX 01 00:12:10
  TRACK 09 AUDIO
    TITLE "1Q_t_0110-0118_09"
    INDEX 01 00:12:29
  TRACK 10 AUDIO
    TITLE "1Q_t_0110-0118_10"
    INDEX 01 00:15:75
  TRACK 11 AUDIO
    TITLE "1Q_t_0110-0118_11"
    INDEX 01 00:16:17
  TRACK 12 AUDIO
    TITLE "1Q_t_0110-0118_12"
    INDEX 01 00:21:22
  TRACK 13 AUDIO
    TITLE "1Q_t_0110-0118_13"
    INDEX 01 00:21:73
  TRACK 14 AUDIO
    TITLE "1Q_t_0110-0118_14"
    INDEX 01 00:23:09
  TRACK 15 AUDIO
    TITLE "1Q_t_0110-0118_15"
    INDEX 01 00:23:23
  TRACK 16 AUDIO
    TITLE "1Q_t_0110-0118_16"
    INDEX 01 00:25:42
  TRACK 17 AUDIO
    TITLE "1Q_t_0110-0118_17"
    INDEX 01 00:25:57
  TRACK 18 AUDIO
    TITLE "1Q_t_0110-0118_18"
    INDEX 01 00:30:37
  TRACK 19 AUDIO
    TITLE "1Q_t_0110-0118_19"
    INDEX 01 00:31:15
  TRACK 20 AUDIO
    TITLE "1Q_t_0110-0118_20"
    INDEX 01 00:32:22
  TRACK 21 AUDIO
    TITLE "1Q_t_0110-0118_21"
    INDEX 01 00:32:38
  TRACK 22 AUDIO
    TITLE "1Q_t_0110-0118_22"
    INDEX 01 00:35:69
  TRACK 23 AUDIO
    TITLE "1Q_t_0110-0118_23"
    INDEX 01 00:36:10
  TRACK 24 AUDIO
    TITLE "1Q_t_0110-0118_24"
    INDEX 01 00:39:57
  TRACK 25 AUDIO
    TITLE "1Q_t_0110-0118_25"
    INDEX 01 00:40:33
  TRACK 26 AUDIO
    TITLE "1Q_t_0110-0118_26"
    INDEX 01 00:41:33
  TRACK 27 AUDIO
    TITLE "1Q_t_0110-0118_27"
    INDEX 01 00:41:48
  TRACK 28 AUDIO
    TITLE "1Q_t_0110-0118_28"
    INDEX 01 00:43:40
  TRACK 29 AUDIO
    TITLE "1Q_t_0110-0118_29"
    INDEX 01 00:43:55
  TRACK 30 AUDIO
    TITLE "1Q_t_0110-0118_30"
    INDEX 01 00:48:07
  TRACK 31 AUDIO
    TITLE "1Q_t_0110-0118_31"
    INDEX 01 00:48:58
  TRACK 32 AUDIO
    TITLE "1Q_t_0110-0118_32"
    INDEX 01 00:49:60
  TRACK 33 AUDIO
    TITLE "1Q_t_0110-0118_33"
    INDEX 01 00:49:75
  TRACK 34 AUDIO
    TITLE "1Q_t_0110-0118_34"
    INDEX 01 00:51:49
  TRACK 35 AUDIO
    TITLE "1Q_t_0110-0118_35"
    INDEX 01 00:51:64
  TRACK 36 AUDIO
    TITLE "1Q_t_0110-0118_36"
    INDEX 01 00:56:03
  TRACK 37 AUDIO
    TITLE "1Q_t_0110-0118_37"
    INDEX 01 00:56:58
  TRACK 38 AUDIO
    TITLE "1Q_t_0110-0118_38"
    INDEX 01 00:57:69
  TRACK 39 AUDIO
    TITLE "1Q_t_0110-0118_39"
    INDEX 01 00:58:12
  TRACK 40 AUDIO
    TITLE "1Q_t_0110-0118_40"
    INDEX 01 01:02:31
  TRACK 41 AUDIO
    TITLE "1Q_t_0110-0118_41"
    INDEX 01 01:02:47
  TRACK 42 AUDIO
    TITLE "1Q_t_0110-0118_42"
    INDEX 01 01:07:11
  TRACK 43 AUDIO
    TITLE "1Q_t_0110-0118_43"
    INDEX 01 01:07:64
  TRACK 44 AUDIO
    TITLE "1Q_t_0110-0118_44"
    INDEX 01 01:08:71
  TRACK 45 AUDIO
    TITLE "1Q_t_0110-0118_45"
    INDEX 01 01:09:11
  TRACK 46 AUDIO
    TITLE "1Q_t_0110-0118_46"
    INDEX 01 01:12:22
  TRACK 47 AUDIO
    TITLE "1Q_t_0110-0118_47"
    INDEX 01 01:12:35
  TRACK 48 AUDIO
    TITLE "1Q_t_0110-0118_48"
    INDEX 01 01:19:49
  TRACK 49 AUDIO
    TITLE "1Q_t_0110-0118_49"
    INDEX 01 01:20:27
  TRACK 50 AUDIO
    TITLE "1Q_t_0110-0118_50"
    INDEX 01 01:21:52
  TRACK 51 AUDIO
    TITLE "1Q_t_0110-0118_51"
    INDEX 01 01:21:70
  TRACK 52 AUDIO
    TITLE "1Q_t_0110-0118_52"
    INDEX 01 01:25:44
  TRACK 53 AUDIO
    TITLE "1Q_t_0110-0118_53"
    INDEX 01 01:25:58
  TRACK 54 AUDIO
    TITLE "1Q_t_0110-0118_54"
    INDEX 01 01:32:50
